<?xml version="1.0" standalone="no"?><!DOCTYPE svg PUBLIC "-//W3C//DTD SVG 1.1//EN" "http://www.w3.org/Graphics/SVG/1.1/DTD/svg11.dtd"><svg t="1706588032199" class="icon" viewBox="0 0 1024 1024" version="1.1" xmlns="http://www.w3.org/2000/svg" p-id="1582" xmlns:xlink="http://www.w3.org/1999/xlink" width="200" height="200"><path d="M965.578667 301.226667c-0.007111-17.173333-3.68-32.348444-11.107556-45.372445-7.296-12.807111-18.222222-23.541333-32.878222-32.028444-120.977778-69.756444-242.072889-139.299556-363.011556-209.127111-32.604444-18.823111-64.216889-18.136889-96.579555 0.956444C413.848889 44.053333 172.764444 182.176 100.924444 223.786667 71.338667 240.913778 56.942222 267.125333 56.935111 301.194667 56.888889 441.479111 56.935111 581.76 56.888889 722.048c0.007111 16.796444 3.523556 31.676444 10.624 44.504889 7.299556 13.194667 18.378667 24.224 33.372444 32.903111 71.843556 41.610667 312.96 179.722667 361.102223 208.128 32.376889 19.104 63.989333 19.786667 96.604444 0.956444 120.942222-69.831111 242.044444-139.370667 363.04-209.127111 14.993778-8.675556 26.072889-19.712 33.372444-32.896 7.089778-12.828444 10.613333-27.708444 10.620445-44.508444 0 0 0-280.494222-0.046222-420.782222" fill="#5C8DBC" p-id="1583"></path><path d="M512.647111 510.254222L67.512889 766.552889c7.299556 13.194667 18.378667 24.224 33.372444 32.903111 71.843556 41.610667 312.96 179.722667 361.102223 208.128 32.376889 19.104 63.989333 19.786667 96.604444 0.956444 120.942222-69.831111 242.044444-139.370667 363.04-209.127111 14.993778-8.675556 26.072889-19.712 33.372444-32.896l-442.357333-256.263111" fill="#1A4674" p-id="1584"></path><path d="M380.803556 586.172444c25.902222 45.219556 74.595556 75.719111 130.453333 75.719112 56.202667 0 105.173333-30.887111 130.944-76.590223l-129.553778-75.047111-131.843555 75.918222" fill="#1A4674" p-id="1585"></path><path d="M965.578667 301.226667c-0.007111-17.173333-3.68-32.348444-11.107556-45.372445l-441.824 254.4 442.357333 256.263111c7.089778-12.828444 10.613333-27.708444 10.620445-44.508444 0 0 0-280.494222-0.046222-420.782222" fill="#1B598E" p-id="1586"></path><path d="M941.255111 528.572444h-34.567111v34.574223h-34.574222v-34.574223h-34.563556v-34.563555h34.563556v-34.567111h34.574222v34.567111h34.567111v34.563555m-126.133333 0h-34.563556v34.574223h-34.567111v-34.574223h-34.567111v-34.563555h34.567111v-34.567111h34.567111v34.567111h34.563556v34.563555" fill="#FFFFFF" p-id="1587"></path><path d="M642.200889 585.301333c-25.770667 45.703111-74.741333 76.590222-130.944 76.590223-55.857778 0-104.551111-30.499556-130.453333-75.719112a149.553778 149.553778 0 0 1-19.818667-74.552888c0-82.990222 67.281778-150.268444 150.272-150.268445 55.498667 0 103.936 30.119111 129.966222 74.876445l131.345778-75.633778c-52.206222-90.119111-149.674667-150.748444-261.312-150.748445-166.670222 0-301.777778 135.111111-301.777778 301.774223 0 54.677333 14.545778 105.952 39.968 150.179555 52.074667 90.595556 149.820444 151.598222 261.809778 151.598222 112.195556 0 210.094222-61.248 262.094222-152.110222l-131.150222-75.985778" fill="#FFFFFF" p-id="1588"></path></svg>